<svg width="20" height="20" viewBox="0 0 20 20" fill="none" xmlns="http://www.w3.org/2000/svg">
<path d="M17.688 9.91818C17.7631 9.91818 17.8352 9.88945 17.8883 9.8383C17.9415 9.78716 17.9713 9.71779 17.9713 9.64546V8.67727H19V7L10.2834 4.10091V3.33455H12.318C12.3932 3.33455 12.4652 3.30581 12.5184 3.25467C12.5715 3.20352 12.6014 3.13415 12.6014 3.06182V1.27273C12.6014 1.2004 12.5715 1.13103 12.5184 1.07988C12.4652 1.02873 12.3932 1 12.318 1H10C9.92484 1 9.85277 1.02873 9.79962 1.07988C9.74648 1.13103 9.71663 1.2004 9.71663 1.27273V4.10091L1 7V8.68545H2.02865V9.64546C2.02865 9.71779 2.05851 9.78716 2.11165 9.8383C2.16479 9.88945 2.23687 9.91818 2.31203 9.91818H2.48205V15.88H2.31203C2.23687 15.88 2.16479 15.9087 2.11165 15.9599C2.05851 16.011 2.02865 16.0804 2.02865 16.1527V17.1264C1.76375 17.1403 1.51438 17.2511 1.33159 17.4361C1.14879 17.6212 1.04639 17.8665 1.04534 18.1218V18.7273C1.04534 18.7996 1.0752 18.869 1.12834 18.9201C1.18148 18.9713 1.25356 19 1.32872 19H18.6713C18.7464 19 18.8185 18.9713 18.8717 18.9201C18.9248 18.869 18.9547 18.7996 18.9547 18.7273V18.1218C18.9536 17.8665 18.8512 17.6212 18.6684 17.4361C18.4856 17.2511 18.2363 17.1403 17.9713 17.1264V16.1527C17.9713 16.0804 17.9415 16.011 17.8883 15.9599C17.8352 15.9087 17.7631 15.88 17.688 15.88H17.5179V9.91818H17.688ZM17.4046 9.37273H15.0526V8.67727H17.4046V9.37273ZM17.4046 16.4255V17.1209H15.0526V16.4255H17.4046ZM14.7692 15.88C14.6941 15.88 14.622 15.9087 14.5688 15.9599C14.5157 16.011 14.4858 16.0804 14.4858 16.1527V17.1209H13.8199V16.1527C13.8199 16.0804 13.79 16.011 13.7369 15.9599C13.6838 15.9087 13.6117 15.88 13.5365 15.88H13.3665V9.91818H13.5365C13.6117 9.91818 13.6838 9.88945 13.7369 9.8383C13.79 9.78716 13.8199 9.71779 13.8199 9.64546V8.67727H14.4858V9.64546C14.4858 9.71779 14.5157 9.78716 14.5688 9.8383C14.622 9.88945 14.6941 9.91818 14.7692 9.91818H14.9392V15.88H14.7692ZM9.66845 17.1209V16.1527C9.66845 16.0804 9.6386 16.011 9.58545 15.9599C9.53231 15.9087 9.46023 15.88 9.38508 15.88H9.21222V9.91818H9.38508C9.46023 9.91818 9.53231 9.88945 9.58545 9.8383C9.6386 9.78716 9.66845 9.71779 9.66845 9.64546V8.67727H10.3315V9.64546C10.3315 9.71779 10.3614 9.78716 10.4145 9.8383C10.4677 9.88945 10.5398 9.91818 10.6149 9.91818H10.7878V15.88H10.6149C10.5398 15.88 10.4677 15.9087 10.4145 15.9599C10.3614 16.011 10.3315 16.0804 10.3315 16.1527V17.1209H9.66845ZM5.51417 17.1209V16.1527C5.51417 16.0804 5.48431 16.011 5.43117 15.9599C5.37803 15.9087 5.30595 15.88 5.23079 15.88H5.06077V9.91818H5.23079C5.30595 9.91818 5.37803 9.88945 5.43117 9.8383C5.48431 9.78716 5.51417 9.71779 5.51417 9.64546V8.67727H6.1801V9.64546C6.1801 9.71779 6.20996 9.78716 6.2631 9.8383C6.31624 9.88945 6.38832 9.91818 6.46348 9.91818H6.63633V15.88H6.46348C6.38832 15.88 6.31624 15.9087 6.2631 15.9599C6.20996 16.011 6.1801 16.0804 6.1801 16.1527V17.1209H5.51417ZM2.5954 16.4255H4.94742V17.1209H2.5954V16.4255ZM8.64547 15.88H7.20309V9.91818H8.64547V15.88ZM9.1017 9.37273H6.74685V8.67727H9.1017V9.37273ZM6.74685 16.4255H9.1017V17.1209H6.74685V16.4255ZM12.7997 15.88H11.3545V9.91818H12.7997V15.88ZM13.2531 9.37273H10.8983V8.67727H13.2531V9.37273ZM10.8983 16.4255H13.2531V17.1209H10.8983V16.4255ZM12.0318 2.78909H10.2834V1.54545H12.0346L12.0318 2.78909ZM1.56675 7.38182L10 4.58364L18.4333 7.38182V8.13182H1.56675V7.38182ZM4.94742 8.67727V9.37273H2.5954V8.67727H4.94742ZM3.0488 9.91818H4.49402V15.88H3.0488V9.91818ZM18.3879 18.1218V18.4545H1.61209V18.1218C1.61209 18.001 1.66195 17.8852 1.7507 17.7998C1.83945 17.7143 1.95982 17.6664 2.08533 17.6664H17.9147C18.0402 17.6664 18.1606 17.7143 18.2493 17.7998C18.3381 17.8852 18.3879 18.001 18.3879 18.1218ZM16.9512 15.88H15.506V9.91818H16.9512V15.88Z" fill="white" stroke="white" stroke-width="0.3"/>
</svg>
