<svg width="20" height="18" viewBox="0 0 20 18" fill="none" xmlns="http://www.w3.org/2000/svg">
<path d="M1 7.20918V1.60275C1 1.30133 1.24113 1.12048 1.48227 1.12048H5.28018C5.5816 1.12048 5.76245 1.36161 5.76245 1.60275V7.20918C5.76245 7.5106 5.52132 7.69146 5.28018 7.69146H1.48227C1.24113 7.69146 1 7.45032 1 7.20918Z" stroke="white" stroke-miterlimit="10" stroke-linecap="round" stroke-linejoin="round"/>
<path d="M1 16.1916V9.98234C1 9.68092 1.24113 9.43977 1.54255 9.43977H5.34047C5.64189 9.43977 5.88302 9.68092 5.88302 9.98234V16.1916C5.88302 16.493 5.64189 16.7342 5.34047 16.7342H1.54255C1.24113 16.7342 1 16.493 1 16.1916Z" stroke="white" stroke-miterlimit="10" stroke-linecap="round" stroke-linejoin="round"/>
<path d="M8.23413 10.7661V1.54259C8.23413 1.24117 8.47526 1.00003 8.77668 1.00003H18.603C18.9044 1.00003 19.1456 1.24117 19.1456 1.54259V10.7661C19.1456 11.0675 18.9044 11.3086 18.603 11.3086H8.77668C8.47526 11.3086 8.23413 11.0675 8.23413 10.7661Z" stroke="white" stroke-miterlimit="10" stroke-linecap="round" stroke-linejoin="round"/>
<path d="M13.6598 16.1916V13.6596C13.6598 13.3582 13.9009 13.1171 14.2023 13.1171H18.5428C18.8442 13.1171 19.0854 13.3582 19.0854 13.6596V16.1916C19.0854 16.493 18.8442 16.7341 18.5428 16.7341H14.2023C13.9009 16.7341 13.6598 16.493 13.6598 16.1916Z" stroke="white" stroke-miterlimit="10" stroke-linecap="round" stroke-linejoin="round"/>
<path d="M8.23413 16.1915V13.7198C8.23413 13.4184 8.47526 13.1773 8.77668 13.1773H10.6455C10.9469 13.1773 11.1881 13.4184 11.1881 13.7198V16.1915C11.1881 16.4929 10.9469 16.7341 10.6455 16.7341H8.77668C8.47526 16.7341 8.23413 16.4929 8.23413 16.1915Z" stroke="white" stroke-miterlimit="10" stroke-linecap="round" stroke-linejoin="round"/>
</svg>
