<svg width="18" height="21" viewBox="0 0 18 21" fill="none" xmlns="http://www.w3.org/2000/svg">
<path d="M17.9893 11.96C17.9469 11.7055 17.7984 11.4935 17.5652 11.3663L13.4725 9.33051C12.9211 10.4544 12.2001 11.854 11.2247 13.5504C10.7582 14.3563 9.93113 14.844 8.99808 14.844C8.06503 14.844 7.21681 14.3563 6.75028 13.5504C5.85964 12.0236 5.18106 10.7513 4.67212 9.691L2.38191 10.0727C2.12744 10.1151 1.91538 10.2848 1.80935 10.4968L0.0704876 14.4199C-0.099158 14.7804 0.0492818 15.2257 0.388573 15.3953L8.80723 20.0182C8.91326 20.0818 9.04049 20.103 9.16773 20.103C9.21014 20.103 9.27376 20.103 9.31617 20.0818L16.5049 18.5974C16.7382 18.555 16.929 18.4065 17.035 18.1945C17.1411 17.9824 17.1411 17.7492 17.0562 17.5371L15.6567 14.3987L17.756 12.5962C17.9469 12.4689 18.0317 12.2145 17.9893 11.96Z" fill="white"/>
<path d="M9.90992 12.8082C11.2247 10.518 13.5149 6.29809 13.5149 4.51681C13.5149 2.01454 11.4791 0 8.99807 0C6.51701 0 4.48126 2.03575 4.48126 4.51681C4.48126 6.29809 6.77148 10.518 8.08623 12.8082C8.48914 13.508 9.50701 13.508 9.90992 12.8082ZM6.89871 4.49561C6.89871 3.32929 7.85297 2.39624 8.99807 2.39624C10.1432 2.39624 11.0974 3.3505 11.0974 4.49561C11.0974 5.66192 10.1432 6.59497 8.99807 6.59497C7.85297 6.59497 6.89871 5.66192 6.89871 4.49561Z" fill="white"/>
</svg>
