<svg width="18" height="21" viewBox="0 0 18 21" fill="none" xmlns="http://www.w3.org/2000/svg">
<path d="M3.41931 16.8372V2.36397C3.41931 1.68817 3.98247 1.125 4.65827 1.125H14.0068C15.1331 2.25133 15.8089 2.92713 16.9352 4.05345V16.7809C16.9352 17.4567 16.3721 18.0199 15.6963 18.0199H4.65827C3.98247 18.0762 3.41931 17.513 3.41931 16.8372Z" stroke="white" stroke-miterlimit="10" stroke-linecap="round" stroke-linejoin="round"/>
<path d="M15.2458 5.12346H12.9932V2.8708" stroke="white" stroke-miterlimit="10" stroke-linecap="round" stroke-linejoin="round"/>
<path d="M8.48782 5.12346H6.23517V7.37611H8.48782V5.12346Z" stroke="white" stroke-miterlimit="10" stroke-linecap="round" stroke-linejoin="round"/>
<path d="M6.23517 11.8814H14.1194" stroke="white" stroke-miterlimit="10" stroke-linecap="round" stroke-linejoin="round"/>
<path d="M6.23517 14.1341H11.3036" stroke="white" stroke-miterlimit="10" stroke-linecap="round" stroke-linejoin="round"/>
<path d="M6.23517 9.62877H14.1194" stroke="white" stroke-miterlimit="10" stroke-linecap="round" stroke-linejoin="round"/>
<path d="M11.8668 20.3288H3.02512C2.01143 20.3288 1.16669 19.4841 1.16669 18.4704V4.56029" stroke="white" stroke-miterlimit="10" stroke-linecap="round" stroke-linejoin="round"/>
</svg>
